<svg width="334" height="125" viewBox="0 0 334 125" fill="none" xmlns="http://www.w3.org/2000/svg">
<path d="M134.32 0.172863C134.324 0.500969 133.698 1.14061 132.442 2.0918L132.091 2.09561L132.087 1.74407C132.591 0.707286 133.336 0.18355 134.32 0.172863ZM131.321 2.45555L131.743 2.45097C129.986 4.72018 127.394 7.7485 123.966 11.5359L123.971 11.9578C127.275 9.76553 129.741 7.98085 131.366 6.60375L131.37 6.95529C125.208 13.632 120.394 19.3095 116.929 23.9881L113.244 27.8252L112.893 27.829L112.888 27.4071C112.885 27.1259 113.624 26.1334 115.106 24.4298L114.684 24.4343C111.157 27.7072 106.969 32.7451 102.121 39.5482L102.472 39.5444C102.894 39.5398 104.513 37.5299 107.329 33.5147L110.253 30.8109L110.675 30.8064C104.013 38.9417 100.685 43.3609 100.693 44.0639C114.947 27.0332 124.325 16.548 128.83 12.6082L131.06 10.7558L131.411 10.7519L131.419 11.455C126.456 16.2904 121.639 21.7337 116.97 27.7847C100.302 46.9043 84.8925 67.5572 70.7419 89.7433C63.6406 100.602 60.0913 106.149 60.0938 106.383C59.6251 106.388 58.8845 107.264 57.8722 109.009L58.2443 110.904L57.4748 111.264C56.7248 111.272 55.7351 110.79 54.5058 109.819L54.5096 110.171L54.8695 110.94C54.6571 112.958 54.293 113.97 53.7774 113.976C53.0743 113.983 52.5522 111.223 52.2109 105.695C51.8828 105.699 51.6087 104.202 51.3886 101.204L51.7402 101.2C50.7141 97.3675 50.1446 90.2482 50.0317 79.8426L49.6725 79.1433C49.6694 78.8621 49.7851 78.7202 50.0194 78.7177L49.6274 74.9951L49.5091 64.0973L48.7357 64.1057C48.4076 64.1093 39.0206 73.8446 20.5746 93.3116L2.75502 110.029L2.33317 110.034L2.32859 109.612C2.3235 109.143 3.80586 107.51 6.77565 104.712L6.77184 104.361L6.06875 104.368C4.76956 105.601 3.88561 106.22 3.41688 106.225C2.28788 105.862 1.4126 105.122 0.791048 104.004C2.00973 103.99 3.21266 100.368 4.39984 93.1356C5.81573 89.6982 7.63363 84.4281 9.85353 77.3255L9.84513 76.5521L9.49359 76.5559C7.52439 80.8432 4.86099 88.1147 1.50338 98.3705L0.729984 98.3789L0.726167 98.0274C2.2807 90.0881 8.38217 75.6539 19.0306 54.7245L37.3296 17.3987C40.1206 11.0868 42.3364 7.92189 43.9769 7.90408L44.4072 8.67289C41.9626 12.3559 39.9891 16.2447 38.4866 20.3394C39.0032 20.4276 39.2638 20.6826 39.2684 21.1044C38.3054 23.0837 37.8255 24.214 37.8285 24.4952L37.8369 25.2686L38.1885 25.2648C40.6096 19.4257 43.4352 14.1447 46.6654 9.42186L47.017 9.41804L46.2596 10.9029L46.7059 13.1482C44.675 16.0767 40.862 23.2435 35.2667 34.6487C32.5985 39.3185 28.933 47.1166 24.27 58.0428L24.2739 58.3944L24.6957 58.3898C24.685 57.4055 32.9966 41.4471 49.6306 10.5147L50.404 10.5063L50.4078 10.8579C49.5411 13.0705 43.5492 24.6441 32.4321 45.5785L32.4397 46.2816L32.7913 46.2778C32.7857 45.7622 34.0034 43.4988 36.4443 39.4877L37.2177 39.4793L37.2223 39.9012C27.84 56.5509 20.1336 72.1276 14.1032 86.6315L14.4548 86.6276C14.7829 86.6241 19.9728 81.0596 30.0245 69.9342C38.374 61.7806 47.6548 53.0543 57.8669 43.7554L58.6403 43.747C58.6434 44.0282 57.415 45.3073 54.9552 47.5841L54.959 47.9357L57.8913 46.0053C58.5007 45.9987 59.0651 50.4928 59.5847 59.4877L59.6091 61.7375C59.6152 62.3 59.738 62.8143 59.9774 63.2805C59.7472 63.658 59.6366 64.2686 59.6458 65.1124L60.0263 67.7803C60.0288 68.0146 59.9129 68.1331 59.6786 68.1356L60.0706 71.8581L60.0996 74.5299C60.1184 76.2641 60.2654 79.0049 60.5404 82.7521C61.8885 81.7062 65.9509 75.9195 72.7277 65.3922C88.8678 45.1064 98.0055 33.991 100.141 32.0458L100.145 32.4676C98.5725 34.4067 97.603 35.7767 97.2366 36.5776L97.5882 36.5738C100.788 33.3982 103.859 29.1224 106.801 23.7464C110.51 19.9559 116.322 13.4003 124.237 4.07943L125.701 2.93847L126.123 2.93389L126.83 3.2778C126.838 3.98088 125.351 5.23928 122.371 7.05299L113.142 18.4038L113.146 18.8257C114.881 18.8069 115.742 18.2819 115.731 17.2507C115.723 16.5007 115.977 16.1229 116.492 16.1173L116.844 16.1135L117.622 16.527C118.399 14.7372 119.14 13.8385 119.843 13.8308C119.83 12.659 121.056 11.1456 123.52 9.29065C123.744 8.30378 126.344 6.02542 131.321 2.45555ZM118.775 19.1162L118.783 19.8896L119.135 19.8858C119.463 19.8822 120.203 18.9835 121.356 17.1896L121.352 16.8381C119.63 18.0287 118.771 18.7881 118.775 19.1162ZM115.441 22.8792L115.449 23.6525L115.8 23.6487C117.29 22.6481 118.029 21.6322 118.018 20.601L117.666 20.6049C117.291 20.6089 116.549 21.367 115.441 22.8792ZM110.589 22.9318L110.184 24.4832L110.958 24.4748L111.292 22.9242L110.589 22.9318ZM34.4988 28.6801C32.0165 33.2073 30.5504 36.3406 30.1005 38.0799C30.8974 38.0713 31.9979 35.8092 33.4021 31.2937C33.8239 31.2891 34.3079 30.5338 34.8541 29.0278L34.8503 28.6763L34.4988 28.6801ZM103.475 28.2828L103.479 28.6344C103.484 29.1499 103.253 29.4103 102.784 29.4154L102.78 29.0638C102.822 28.5477 103.053 28.2874 103.475 28.2828ZM39.0634 34.6074L39.7665 34.5998L39.7703 34.9513C38.8568 37.1645 38.119 38.2976 37.5571 38.3506L37.5494 37.6475C38.5648 36.1832 39.0695 35.1699 39.0634 34.6074ZM60.9951 85.7708L61.6982 85.7632C71.4758 70.9843 83.1854 54.9656 96.827 37.7071L96.8194 37.004C93.4374 40.6972 87.2639 48.4991 78.2989 60.4096C70.8594 70.3347 65.0914 78.7884 60.9951 85.7708ZM91.8074 54.6376L91.812 55.0594C93.6695 53.4454 96.2603 50.2765 99.5842 45.5526L99.5804 45.2011C99.0668 45.3942 96.4758 48.5397 91.8074 54.6376ZM54.5494 49.0652L54.5532 49.4167L55.6781 49.4045L55.6705 48.7014C55.2043 48.9409 54.8306 49.0621 54.5494 49.0652ZM57.6093 52.4071L57.6177 53.1805L58.4399 57.6719L58.7914 57.6681L57.9608 52.4033L57.6093 52.4071ZM88.8253 58.4671L88.8291 58.8186C90.2241 57.7721 91.2197 56.6363 91.8158 55.411L91.3939 55.4156C91.1127 55.4186 90.2565 56.4358 88.8253 58.4671ZM58.4681 60.2733L58.5048 63.6481L58.8563 63.6443L58.8197 60.2695L58.4681 60.2733ZM58.5208 65.1246L58.562 68.9212L58.9136 68.9174L58.8724 65.1207L58.5208 65.1246ZM55.5388 68.954L55.5953 74.1569C55.8958 80.2477 56.1902 83.6197 56.4786 84.2729L56.8301 84.269L56.8263 83.9175L56.4664 83.1479C56.4638 82.9136 56.5797 82.7951 56.8141 82.7926L56.4465 81.3199C56.0915 74.5265 55.9061 70.4033 55.8903 68.9502L55.5388 68.954ZM58.5781 70.3977L58.6353 75.6708C58.6873 76.139 58.9242 76.3708 59.346 76.3663L59.2811 70.3901L58.5781 70.3977ZM36.8069 72.8842C36.8125 73.3998 36.3272 74.0379 35.351 74.7985L35.3549 75.1501C36.6602 74.4796 37.402 73.7215 37.5803 72.8758L36.8069 72.8842ZM71.7737 81.1535C69.8866 84.3617 68.6648 86.2501 68.1085 86.8186L68.1123 87.1702L68.4638 87.1664C70.1334 85.5075 71.3773 83.5017 72.1956 81.1489L71.7737 81.1535ZM52.3105 82.4899L52.351 86.2162L52.7025 86.2124L52.6621 82.4861L52.3105 82.4899ZM13.4436 97.1158L13.8654 97.1112C16.5611 94.9725 20.8742 90.6832 26.8046 84.2434L26.4531 84.2473C17.8703 92.4972 13.5338 96.7867 13.4436 97.1158ZM56.487 85.0463L56.5076 86.9446L56.8591 86.9408L56.8385 85.0424L56.487 85.0463ZM56.5198 88.0695L56.5602 91.7959L56.9324 93.6904L57.2839 93.6865L57.2717 92.5616L56.8713 88.0657L56.5198 88.0695ZM9.70121 95.6798L10.4746 95.6714C10.469 95.1558 12.1817 93.1449 15.6125 89.6387L15.608 89.2168L15.2564 89.2207C12.3315 91.8307 10.4797 93.9837 9.70121 95.6798ZM57.3694 101.561L57.3939 103.811L57.8157 103.806L58.1466 101.904L58.1428 101.553L57.3694 101.561ZM55.9128 103.405L55.9372 105.655C56.4528 105.649 56.7081 105.412 56.703 104.944C56.4167 104.478 56.2704 103.964 56.2643 103.401L55.9128 103.405ZM54.0229 104.199L54.0679 108.347C54.1667 108.815 54.4271 109.047 54.8489 109.042L54.7963 104.191L54.0229 104.199ZM191.229 2.29737C193.479 2.27295 195.532 3.56323 197.389 6.16823L193.452 6.21098C189.749 6.25118 184.957 7.47514 179.077 9.88287L179.081 10.3047L179.503 10.3001C187.84 9.6471 193.977 9.2992 197.915 9.25646L198.758 9.2473L198.768 10.091L197.01 10.1101C196.729 10.1131 196.586 9.97404 196.583 9.69281L172.998 13.4647C173.002 13.7928 171.553 14.2304 168.653 14.7776L168.663 15.6916L175.187 14.2847L175.609 14.2802L175.618 15.1239C156.128 20.492 146.396 24.3948 146.423 26.8321C136.994 34.9037 130.232 42.4307 126.135 49.4131C119.837 60.8259 116.721 69.6024 116.788 75.7426C116.856 82.0235 120.118 86.6525 126.572 89.6294C127.747 89.8979 128.756 90.0276 129.6 90.0185C142.434 84.7694 151.973 76.0638 158.217 63.9016C159.938 58.3982 161.32 51.8203 162.362 44.1679L163.276 44.158L162.452 52.4643C163.343 52.4546 164.069 50.2669 164.631 45.9012C164.291 44.7798 164.114 43.6098 164.101 42.3911L164.087 41.1256L165.001 41.1156C165.33 45.5186 165.504 48.5638 165.522 50.2512C165.547 52.5479 164.863 56.493 163.471 62.0866C165.095 60.6158 166.942 55.7908 169.009 47.6116C169.908 39.7264 170.732 35.7797 171.482 35.7715C171.485 36.0528 171.627 36.1919 171.909 36.1888C171.631 36.4731 171.368 38.2338 171.122 41.4711L171.127 41.8929L171.549 41.8884C172.685 38.5946 173.372 34.9307 173.609 30.8966C173.034 29.7309 172.743 28.8668 172.737 28.3043L173.576 27.8733C174.42 27.8642 175.336 30.1747 176.324 34.8049C176.449 46.3823 171.783 61.3166 162.325 79.6079C154.853 90.8459 145.299 98.2391 133.665 101.788C128.576 103.624 123.64 104.568 118.859 104.62C107.153 101.513 101.222 92.8111 101.067 78.515C100.891 62.2504 107.293 47.4612 120.274 34.1477C124.489 29.4141 133.322 22.6147 146.773 13.7494C161.693 6.27451 176.512 2.45716 191.229 2.29737ZM169.862 9.56102L169.866 9.98287C172.304 9.95641 173.618 10.0828 173.808 10.362C176.233 9.1637 177.703 8.56177 178.218 8.55617L178.209 7.71247L169.862 9.56102ZM115.115 44.6809C121.471 38.5646 126.524 33.4001 130.276 29.1872C133.768 27.0398 135.507 25.2865 135.492 23.9272C129.577 27.4603 123.222 33.6469 116.427 42.4868C115.544 43.1995 115.107 43.9309 115.115 44.6809ZM116.271 67.029C116.6 67.0254 118.018 63.7989 120.526 57.3494C123.589 50.1439 130.056 41.3075 139.927 30.8404L139.922 30.4185C130.158 37.8374 124.832 43.7316 123.941 48.1009C121.349 51.1292 118.792 57.4386 116.271 67.029ZM110.884 56.54L110.888 56.9618L111.31 56.9573C117.635 47.9818 120.791 42.8613 120.777 41.5958C116.644 45.2033 113.346 50.1848 110.884 56.54ZM168.223 59.4333L168.228 59.8552L168.72 59.8498C171.807 50.5814 173.336 44.5879 173.306 41.8693C171.42 45.1243 169.725 50.979 168.223 59.4333ZM113.376 46.4576L113.381 46.8795C113.99 46.8729 114.292 46.5883 114.286 46.0259L114.281 45.604C113.673 45.7044 113.371 45.9889 113.376 46.4576ZM109.988 51.7682C105.693 61.9873 103.57 69.4404 103.621 74.1277C104.331 83.4018 105.427 89.3668 106.909 92.0227L107.331 92.0181L107.322 91.1744C106.411 89.3092 105.933 86.2439 105.886 81.9785C105.835 77.2913 106.224 72.0368 107.051 66.215L106.62 65.3759C107.469 61.5227 108.734 57.1259 110.415 52.1854L110.41 51.7636L109.988 51.7682ZM114.968 70.0667L114.973 70.4886C115.582 70.482 115.884 70.1974 115.878 69.635L115.873 69.2131C115.265 69.3135 114.963 69.598 114.968 70.0667ZM158.307 72.198L158.312 72.6901L158.734 72.6855C159.884 70.7042 160.457 69.526 160.453 69.151C159.752 69.2993 159.036 70.3149 158.307 72.198ZM110.609 70.1141C109.747 72.7486 109.053 75.686 108.525 78.9263C109.152 84.8729 110.067 89.2227 111.269 91.9754L111.69 91.9708L111.681 91.1271C110.795 87.2459 110.346 84.7662 110.335 83.6882L110.747 82.8399C110.461 82.3273 110.314 81.743 110.307 81.0868C110.299 80.4305 110.434 79.8431 110.709 79.3245C110.422 78.7651 110.277 78.3213 110.273 77.9932C110.785 73.3467 111.039 70.8595 111.036 70.5313L111.031 70.1095L110.609 70.1141ZM143.624 86.4207L143.629 86.8425C144.566 86.8324 147.58 83.7292 152.669 77.5329L152.664 77.1111L152.242 77.1156C146.489 82.6159 143.617 85.7176 143.624 86.4207ZM155.82 82.7725C155.824 83.1474 153.09 86.0835 147.618 91.5808L148.04 91.5762C151.893 88.0654 154.628 85.2699 156.246 83.1897L156.668 83.1851L156.663 82.7633L155.82 82.7725ZM114.338 89.7622L114.343 90.1841C114.938 93.1309 116.407 94.5916 118.75 94.5662L120.086 94.5517L120.081 94.0595L114.338 89.7622ZM123.133 96.6984L128.406 96.6412L130.58 96.1254L130.576 95.7035L124.037 95.7745C123.429 95.8749 123.127 96.1828 123.133 96.6984ZM115.253 96.2918L115.258 96.7839C116.446 98.2242 117.766 98.9365 119.219 98.9207L120.133 98.9108L120.129 98.489C119.707 98.4935 118.082 97.7611 115.253 96.2918ZM209.306 2.73398L209.727 2.7294L209.315 3.57768L209.334 5.33539C213.03 4.63897 214.872 3.75174 214.86 2.67368L217.466 3.06728C221.775 2.73923 225.758 2.55536 229.414 2.51567L229.836 2.51109C235.46 2.45003 242.197 5.5177 250.046 11.7141C251.622 14.369 252.656 16.772 253.148 18.923L253.194 23.2119C252.321 29.1279 250.799 33.5744 248.628 36.5513C247.422 37.6894 244.601 41.2828 240.166 47.3313L239.745 47.3358L239.735 46.4921L240.983 44.791L240.139 44.8002C230.201 53.4867 218.859 60.1727 206.113 64.8582C202.934 65.7365 199.799 66.1925 196.705 66.2261C200.834 70.9159 208.332 77.1161 219.197 84.8267C220.328 85.3301 227.219 89.6618 239.871 97.8218C250.441 104.223 263.08 111.235 277.789 118.857L277.794 119.279L276.036 119.298C273.212 118.25 271.798 117.539 271.794 117.164L270.885 117.666L270.041 117.675C269.76 117.678 269.618 117.516 269.614 117.188C268.539 117.481 267.706 118.497 267.116 120.238C268.809 120.782 269.659 121.336 269.665 121.898C268.969 122.515 268.41 122.826 267.988 122.831L265.803 122.362L265.808 122.854C265.814 123.417 266.263 123.693 267.153 123.683L267.167 124.949L266.745 124.954C266.089 124.961 259.627 121.327 247.36 114.054C238.641 109.742 227.998 103.154 215.433 94.29C211.334 92.4126 203.727 86.9167 192.612 77.8024L191.276 77.8169C189.663 80.4127 187.597 86.5761 185.078 96.3072C184.54 98.61 181.717 101.922 176.607 106.243L175.763 106.253L174.906 104.996L174.901 104.574C174.894 103.871 175.301 102.578 176.125 100.694L176.12 100.272L175.698 100.276C175.613 101.027 173.916 102.335 170.608 104.199L170.186 104.204L170.176 103.29C179.838 73.5112 186.611 54.0537 190.497 44.9172C197.17 29.1407 200.494 20.1041 200.469 17.8074C198.922 17.8242 195.522 19.8534 190.268 23.895L189.425 23.9042L189.837 23.0559L189.828 22.2122C188.235 22.2295 184.7 24.8461 179.225 30.0621L178.804 30.0667L178.798 29.5746L184.283 23.1162L185.113 21.8415L185.109 21.4196L184.265 21.4288L179.179 25.7733C178.616 25.7794 178.332 25.5013 178.326 24.9388C183.605 18.928 190.113 13.8649 197.85 9.74938C204.954 7.84401 208.493 5.64922 208.466 3.16499L209.306 2.73398ZM248.387 14.3338L248.391 14.7557C248.491 15.3171 248.776 15.5953 249.244 15.5902L249.24 15.1684C249.234 14.6059 248.949 14.3277 248.387 14.3338ZM198.773 55.9374L199.195 55.9328C204.293 54.8462 206.861 53.951 206.901 53.2474C206.567 52.7354 206.398 52.3153 206.395 51.9872C217.276 48.1658 224.524 44.3837 228.14 40.6411C228.515 40.637 230.762 38.175 234.881 33.255L235.302 33.2504L235.307 33.6723C234.755 34.6158 234.481 35.3454 234.487 35.861L234.909 35.8564C238.581 32.957 240.398 29.7965 240.361 26.3748L240.333 23.7734C239.489 23.7825 239.064 23.5059 239.058 22.9434C240.508 22.6464 241.227 21.9354 241.215 20.8105C241.198 19.3106 238.324 17.912 232.59 16.6148C227.985 15.5398 222.987 15.0315 217.596 15.09C214.831 15.12 212.167 20.1414 209.603 30.1542C208.492 31.3851 204.881 39.9795 198.773 55.9374ZM203.51 19.4619L203.516 19.9541C203.937 19.9495 204.354 19.4997 204.767 18.6045L204.762 18.1826C204.34 18.1872 203.923 18.6137 203.51 19.4619ZM204.021 27.6131L204.442 27.6085C205.283 27.3182 205.696 26.4699 205.681 25.0637C205.212 25.0688 204.658 25.9186 204.021 27.6131ZM244.255 28.8639L244.265 29.7779C244.687 29.7733 245.104 29.3235 245.516 28.4283L245.512 28.0065L245.09 28.0111C244.528 28.1109 244.25 28.3952 244.255 28.8639ZM198.374 58.0512L198.379 58.4731L199.222 58.4639C199.782 58.1766 200.202 58.0314 200.483 58.0283L200.488 58.4502C207.412 57.1562 211.545 55.705 212.887 54.0966L212.465 54.1011C206.2 55.6692 201.503 56.9859 198.374 58.0512ZM196.663 62.3591L197.155 62.3538L204.8 60.5832L204.369 59.744C199.221 60.4562 196.652 61.3279 196.663 62.3591ZM214.107 88.7494L214.116 89.5931C218.559 92.967 221.296 94.6483 222.327 94.6371C221.147 93.8999 220.554 93.1797 220.546 92.4766L214.107 88.7494ZM226.583 97.9661C226.923 99.1343 227.797 99.7108 229.203 99.6956L229.625 99.691L229.62 99.2691C228.964 99.2763 228.116 98.8401 227.075 97.9607L226.583 97.9661ZM254.593 113.132C256.864 115.123 260.308 117.078 264.922 118.996L265.335 118.148C261.796 116.03 258.497 114.355 255.436 113.122L254.593 113.132ZM278.22 119.696L279.485 119.682C280.049 119.77 280.333 120.048 280.338 120.517C279.776 120.523 279.499 120.948 279.508 121.791L278.665 121.801L279.077 120.952L279.073 120.53L278.229 120.54L278.22 119.696ZM285.937 1.48012C286.925 1.79754 287.421 2.14374 287.425 2.51872C286.975 4.25808 286.751 5.2215 286.753 5.40899L286.757 5.76053C286.991 5.75799 288.405 4.31287 290.999 1.42516L291.351 1.42135L292.846 3.16303C292.401 5.32424 291.237 8.24329 289.355 11.9202C289.362 12.5295 289.11 13.1182 288.601 13.6863L288.972 15.5105L278.357 35.1738C278.591 35.1712 278.71 35.2871 278.712 35.5215C279.837 35.5093 284.402 32.8111 292.407 27.427C299.532 23.0838 305.148 20.1164 309.256 18.5248C309.247 17.6811 310.084 17.0861 311.768 16.7397C317.911 12.5946 324.998 9.02527 333.028 6.03167L333.387 6.73094C325.326 11.1781 319.574 14.6157 316.131 17.0439C316.694 17.0378 319.446 15.7891 324.388 13.2978C328.588 11.5646 331.11 10.6934 331.954 10.6842L331.958 11.1061L331.614 11.813C332.084 11.8548 332.321 12.0866 332.325 12.5084C332.091 12.511 331.975 12.6294 331.977 12.8638L333.805 12.8439C333.811 13.3595 332.021 14.715 328.435 16.9103C326.902 18.1458 319.47 22.3283 306.14 29.4578L306.144 29.8093L306.496 29.8055L309.018 29.0046L309.378 29.7742L272.409 50.7783C272.081 50.7819 271.733 51.1372 271.366 51.8444C271.756 53.2465 275.795 60.4218 283.483 73.3704C292.781 87.8015 297.435 95.4624 297.444 96.353C297.116 96.3565 295.162 93.3776 291.581 87.4161L291.23 87.4199L291.234 87.7715C292.055 90.0127 292.916 91.5737 293.816 92.4546L293.472 93.1615C293.8 93.158 295.017 95.1839 297.124 99.2394C302.716 109.164 306.154 114.916 307.437 116.496C307.443 117.058 307.826 117.781 308.586 118.663L308.589 119.015L308.167 119.019L305.25 115.816C305.015 115.819 304.899 115.937 304.902 116.172L304.195 115.828L303.844 115.832C303.851 116.535 303.621 116.889 303.152 116.894C303.155 117.175 303.871 118.386 305.301 120.527L304.602 120.886C304.592 120.042 303.385 118.977 300.981 117.691C300.977 117.363 300.006 116.389 298.066 114.769C296.205 111.742 294.493 109.487 292.93 108.004L292.937 108.707C297.324 115.551 299.523 119.394 299.532 120.238L299.18 120.242C293.82 114.393 289.054 107.203 284.883 98.6692C279.666 88.8346 272.673 77.238 263.902 63.8793L262.426 63.8953C259.897 68.4699 255.65 76.6962 249.685 88.5741C247.305 89.5844 245.527 92.0179 244.35 95.8746C244.36 96.8121 242.929 98.8668 240.057 102.039C238.375 106.839 237.207 109.383 236.554 109.671L236.202 109.675C236.2 109.487 236.424 108.524 236.874 106.785C236.872 106.55 236.751 106.2 236.511 105.734L236.839 103.55L236.835 103.199L236.484 103.203L235.784 103.562C234.796 103.198 234.3 102.828 234.296 102.453C235.269 101.458 235.751 100.492 235.741 99.5543L235.737 99.2027C234.987 99.2109 234.61 98.9806 234.605 98.5118C234.579 96.1682 238.103 88.3014 245.177 74.9113C245.54 73.8292 246.483 72.1313 248.005 69.8178C248 69.3491 248.483 68.5 249.454 67.2707C249.448 66.7082 250.384 64.401 252.262 60.3492C252.731 60.4378 252.969 60.6931 252.973 61.1149C252.744 61.5862 252.63 61.939 252.633 62.1734L253.406 62.165C253.401 61.6494 254.8 58.8684 257.605 53.822C257.6 53.3064 257.362 53.0512 256.894 53.0563C256.897 53.3375 256.781 53.4794 256.547 53.4819L256.531 52.0055C256.527 51.6305 256.99 51.1567 257.922 50.584C257.927 51.0527 258.046 51.2858 258.281 51.2833C259.769 50.2358 261.565 47.1927 263.666 42.154L262.889 41.8108C262.431 42.8002 262.085 43.2962 261.851 43.2988L262.21 43.998C262.215 44.4667 261.983 44.7036 261.514 44.7087L261.163 44.7126L261.159 44.361C261.923 41.3057 263.101 39.7225 264.693 39.6114C265.162 39.6063 265.394 39.3694 265.389 38.9007L265.385 38.5492C264.682 38.5568 264.329 38.4434 264.327 38.2091C264.873 36.7499 265.334 36.0183 265.709 36.0142L265.729 37.8423L266.502 37.8339L266.826 35.299L266.123 35.3066C266.248 33.852 266.592 33.1217 267.154 33.1156L267.506 33.1118L267.51 33.4633L266.818 34.5256L266.823 34.9474L267.174 34.9436C270.961 29.699 272.848 26.4206 272.833 25.1081L272.825 24.3347L272.122 24.3424L272.114 23.6393C273.317 22.173 273.912 20.854 273.9 19.6822C274.871 18.4528 275.45 17.8371 275.637 17.8351L275.278 17.1358C276.479 15.4821 277.076 14.3739 277.07 13.8115L277.773 13.8038L277.782 14.5772L278.133 14.5734C278.125 13.8235 278.238 13.4472 278.473 13.4447L278.114 12.7454C280.072 7.42696 281.847 4.75909 283.441 4.74178C284.824 2.57039 285.656 1.48317 285.937 1.48012ZM313.355 26.848L313.706 26.8442L313.71 27.1958C313.713 27.477 312.876 28.0721 311.198 28.9809L309.722 28.997L309.714 28.2939C311.397 27.8537 312.61 27.3718 313.355 26.848ZM268.596 29.8654L269.65 29.8539C269.655 30.3226 269.424 30.5595 268.955 30.5646L268.603 30.5684L268.596 29.8654ZM304.324 30.5322L304.328 30.8838L305.101 30.8754C305.098 30.641 305.212 30.2882 305.441 29.8169L305.09 29.8207C304.575 29.8732 304.319 30.1104 304.324 30.5322ZM261.163 44.7126L261.167 45.0641C260.658 45.679 260.406 46.2912 260.413 46.9005L259.71 46.9081L259.702 46.2051C259.698 45.8301 260.185 45.3326 261.163 44.7126ZM256.547 53.4819L256.551 53.8335C256.554 54.1616 256.183 54.5172 255.437 54.9003L255.433 54.5488C255.43 54.2207 255.801 53.8651 256.547 53.4819ZM279.073 68.7773L279.081 69.4804C279.982 70.4551 281.465 73.2048 283.53 77.7295C283.812 77.7733 285.414 80.6389 288.335 86.3263L289.038 86.3186L289.034 85.9671C289.025 85.1234 285.845 79.392 279.495 68.7728L279.073 68.7773ZM275.164 71.3512L275.171 72.0543C281.261 84.6452 286.04 93.0313 289.508 97.2126L289.499 96.4392C281.798 82.2251 277.019 73.8624 275.164 71.3512ZM278.765 72.7184L278.772 73.4215C279.297 74.2127 279.562 74.9365 279.569 75.5927C280.038 75.5876 280.27 75.3507 280.265 74.882C279.593 73.436 279.093 72.7149 278.765 72.7184ZM279.925 75.9404C280.832 77.4306 282.676 81.0437 285.457 86.7794L286.155 86.3499C282.756 79.7771 280.796 76.306 280.276 75.9366L279.925 75.9404ZM241.733 87.9573L241.736 88.3088L242.088 88.305L244.216 83.5707L244.213 83.2191C242.543 84.9249 241.717 86.5042 241.733 87.9573ZM286.882 88.5219L286.89 89.2953C288.282 92.2803 289.522 94.1889 290.609 95.0208L290.601 94.3178L286.882 88.5219ZM285.535 93.9509L285.539 94.3727C287.125 97.9182 288.58 100.293 289.906 101.498L290.328 101.493C288.888 98.4147 287.29 95.9007 285.535 93.9509ZM290.972 96.0717C290.983 97.1028 291.962 98.7798 293.91 101.103L293.906 100.751L291.675 96.064L290.972 96.0717ZM297.444 96.353C298.39 97.1396 301.587 102.285 307.034 111.789L306.683 111.793C300.536 102.671 297.457 97.5248 297.444 96.353ZM295.824 109.028L295.828 109.379C295.88 109.894 296.117 110.149 296.539 110.145L296.535 109.793C296.53 109.278 296.293 109.022 295.824 109.028ZM300.914 111.504C300.921 112.16 301.513 112.763 302.691 113.313L303.105 112.605C302.117 112.288 301.619 111.684 301.609 110.793C301.141 110.892 300.91 111.129 300.914 111.504ZM307.394 112.558C307.722 112.555 308.221 113.135 308.89 114.3L308.538 114.304C308.163 114.308 307.784 113.961 307.402 113.261L307.394 112.558ZM304.179 114.351L304.183 114.703C304.282 115.217 304.519 115.473 304.894 115.469L304.882 114.344L304.179 114.351Z" fill="white"/>
</svg>
